<svg width="114" height="134" xmlns="http://www.w3.org/2000/svg" xmlns:xlink="http://www.w3.org/1999/xlink" xml:space="preserve" overflow="hidden"><g transform="translate(-614 -631)"><path d="M631.667 639.959 631.667 729.176C628.335 729.176 625.341 730.176 623.003 731.829L623.003 652.57C623.003 646.591 626.674 642.285 631.667 639.959ZM718.997 738.135 718.997 738.461 718.997 755.704 631.667 755.704C627.002 755.704 623.003 751.725 623.003 747.083 623.003 742.44 627.002 738.135 631.667 738.135ZM636.332 631.011C623.669 631.011 614.01 640.959 614.01 652.897L614.01 747.42C614.01 757.041 622.008 765 631.667 765L723.324 765C725.99 765 727.99 762.673 727.99 760.684L727.99 635.979C727.99 633.327 725.99 631.674 723.324 631.674L710.322 631.674 710.322 670.803C710.322 673.224 708.281 674.909 706.123 674.909 705.022 674.909 703.901 674.467 702.991 673.456L696.993 667.824 691.333 673.456C690.317 674.467 689.111 674.909 687.958 674.909 685.705 674.909 683.663 673.224 683.663 670.803L683.663 631.674 636.332 631.674 636.332 631.011Z" fill="#FFFFFF" fill-rule="evenodd"/></g></svg>