<svg width="122" height="103" xmlns="http://www.w3.org/2000/svg" xmlns:xlink="http://www.w3.org/1999/xlink" xml:space="preserve" overflow="hidden"><defs><clipPath id="clip0"><rect x="1504" y="988" width="122" height="103"/></clipPath></defs><g clip-path="url(#clip0)" transform="translate(-1504 -988)"><path d="M1595.01 1038 1595.01 1060.99 1607.19 1060.99C1608.78 1060.99 1610.19 1059.99 1610.65 1058.51L1617 1038Z" fill="#FFFFFF" fill-rule="evenodd"/><path d="M1564 1007.01 1564 1030 1588 1030 1588 1007.01Z" fill="#FFFFFF" fill-rule="evenodd"/><path d="M1595.01 1007.01 1595.01 1030 1619.48 1030 1625.29 1011.47C1626 1009.24 1624.24 1007.01 1621.78 1007.01Z" fill="#FFFFFF" fill-rule="evenodd"/><path d="M1564 1038 1564 1060.99 1588 1060.99 1588 1038Z" fill="#FFFFFF" fill-rule="evenodd"/><path d="M1507.59 988.006C1505.62 988.006 1504 989.593 1504 991.538 1504 993.502 1505.62 995.089 1507.59 995.089L1519.34 995.089 1524.17 1011.04C1524.19 1011.07 1524.19 1011.13 1524.21 1011.19L1529.92 1030 1556.99 1030 1556.99 1006.54 1530.33 1006.54 1525.48 990.534C1525.04 989.022 1523.62 988.006 1522.02 988.006Z" fill="#FFFFFF" fill-rule="evenodd"/><path d="M1532.27 1038 1537.19 1054.35C1529.71 1054.9 1524.01 1061.17 1524.25 1068.58 1524.52 1075.98 1530.65 1081.86 1538.14 1081.92L1541.71 1081.92C1543.29 1087.29 1548.29 1091 1553.98 1091 1559.67 1091 1564.67 1087.29 1566.27 1081.92L1585.25 1081.92C1586.84 1087.29 1591.86 1091 1597.54 1091 1603.2 1091 1608.22 1087.29 1609.81 1081.92L1614.43 1081.92C1616.39 1081.92 1617.99 1080.33 1617.99 1078.37 1617.99 1076.42 1616.39 1074.85 1614.43 1074.85L1609.81 1074.85C1608.22 1069.46 1603.2 1065.75 1597.54 1065.75 1591.86 1065.75 1586.84 1069.46 1585.25 1074.85L1566.27 1074.85C1564.67 1069.46 1559.67 1065.75 1553.98 1065.75 1548.29 1065.75 1543.29 1069.46 1541.69 1074.85L1538.14 1074.85C1534.39 1074.85 1531.33 1071.84 1531.33 1068.13 1531.33 1064.4 1534.39 1061.38 1538.14 1061.38L1556.99 1061.38 1556.99 1038Z" fill="#FFFFFF" fill-rule="evenodd"/></g></svg>