<svg width="123" height="140" xmlns="http://www.w3.org/2000/svg" xmlns:xlink="http://www.w3.org/1999/xlink" xml:space="preserve" overflow="hidden"><g transform="translate(-2895 -1454)"><path d="M2952 1495.01 2952 1503.99 2959.99 1503.99 2959.99 1495.01Z" fill="#FFFFFF" fill-rule="evenodd"/><path d="M2964.7 1474.78C2966.96 1474.78 2968.8 1476.61 2968.8 1478.89L2968.8 1487.08 2977 1487.08C2979.27 1487.08 2981.09 1488.93 2981.09 1491.19 2981.09 1493.46 2979.27 1495.29 2977 1495.29L2968.8 1495.29 2968.8 1503.49 2977 1503.49C2979.27 1503.49 2981.09 1505.33 2981.09 1507.59 2981.09 1509.87 2979.27 1511.7 2977 1511.7L2968.8 1511.7 2968.8 1519.9C2968.8 1522.17 2966.96 1524 2964.7 1524 2962.43 1524 2960.59 1522.17 2960.59 1519.9L2960.59 1511.7 2952.39 1511.7 2952.39 1519.9C2952.39 1522.17 2950.57 1524 2948.29 1524 2946.04 1524 2944.19 1522.17 2944.19 1519.9L2944.19 1511.7 2936 1511.7C2933.73 1511.7 2931.89 1509.87 2931.89 1507.59 2931.89 1505.33 2933.73 1503.49 2936 1503.49L2944.19 1503.49 2944.19 1495.29 2936 1495.29C2933.73 1495.29 2931.91 1493.46 2931.91 1491.19 2931.91 1488.93 2933.73 1487.08 2936 1487.08L2944.2 1487.08 2944.2 1478.89C2944.2 1476.61 2946.04 1474.78 2948.3 1474.78 2950.57 1474.78 2952.39 1476.61 2952.39 1478.89L2952.39 1487.08 2960.6 1487.08 2960.6 1478.89C2960.6 1476.61 2962.43 1474.78 2964.7 1474.78ZM2989.29 1528.11C2990.07 1528.11 2990.86 1528.33 2991.58 1528.8 2993.45 1530.06 2993.96 1532.59 2992.7 1534.49 2984.62 1546.62 2971.08 1553.87 2956.5 1553.87 2941.92 1553.87 2928.38 1546.62 2920.29 1534.49 2919.04 1532.59 2919.55 1530.04 2921.42 1528.8 2922.13 1528.33 2922.92 1528.11 2923.7 1528.11 2925.02 1528.11 2926.32 1528.74 2927.11 1529.93 2933.68 1539.79 2944.66 1545.66 2956.5 1545.66 2968.33 1545.66 2979.32 1539.79 2985.89 1529.93 2986.66 1528.74 2987.96 1528.11 2989.29 1528.11ZM2915.51 1454.01C2904.2 1454.01 2895 1463.48 2895 1474.78L2895 1556.82C2895 1568.12 2904.2 1577.32 2915.51 1577.32L2938.4 1577.32 2953.6 1592.8C2954.4 1593.6 2955.45 1594 2956.5 1594 2957.55 1594 2958.6 1593.6 2959.4 1592.8L2974.6 1577.32 2997.49 1577.32C3008.8 1577.32 3017.99 1568.12 3017.99 1556.82L3017.99 1474.78C3017.99 1463.48 3008.8 1454.01 2997.49 1454.01Z" fill="#FFFFFF" fill-rule="evenodd"/><rect x="2917" y="1470" width="86" height="84.0002" fill="#FFFFFF"/></g></svg>