<svg width="126" height="143" xmlns="http://www.w3.org/2000/svg" xmlns:xlink="http://www.w3.org/1999/xlink" xml:space="preserve" overflow="hidden"><g transform="translate(-2760 -1381)"><path d="M2818.5 1423.51 2818.5 1431.49 2826.49 1431.49 2826.49 1423.51Z" stroke="#000000" stroke-width="3.4375" stroke-linejoin="round" stroke-miterlimit="10" fill="#FFFFFF" fill-rule="evenodd"/><path d="M2831.2 1403.28C2833.46 1403.28 2835.3 1405.11 2835.3 1407.39L2835.3 1415.58 2843.5 1415.58C2845.77 1415.58 2847.59 1417.43 2847.59 1419.69 2847.59 1421.96 2845.77 1423.79 2843.5 1423.79L2835.3 1423.79 2835.3 1431.99 2843.5 1431.99C2845.77 1431.99 2847.59 1433.83 2847.59 1436.09 2847.59 1438.37 2845.77 1440.2 2843.5 1440.2L2835.3 1440.2 2835.3 1448.4C2835.3 1450.67 2833.46 1452.5 2831.2 1452.5 2828.93 1452.5 2827.09 1450.67 2827.09 1448.4L2827.09 1440.2 2818.89 1440.2 2818.89 1448.4C2818.89 1450.67 2817.07 1452.5 2814.79 1452.5 2812.54 1452.5 2810.69 1450.67 2810.69 1448.4L2810.69 1440.2 2802.49 1440.2C2800.23 1440.2 2798.39 1438.37 2798.39 1436.09 2798.39 1433.83 2800.23 1431.99 2802.49 1431.99L2810.69 1431.99 2810.69 1423.79 2802.49 1423.79C2800.23 1423.79 2798.41 1421.96 2798.41 1419.69 2798.41 1417.43 2800.23 1415.58 2802.49 1415.58L2810.7 1415.58 2810.7 1407.39C2810.7 1405.11 2812.54 1403.28 2814.8 1403.28 2817.07 1403.28 2818.89 1405.11 2818.89 1407.39L2818.89 1415.58 2827.1 1415.58 2827.1 1407.39C2827.1 1405.11 2828.93 1403.28 2831.2 1403.28ZM2855.78 1456.61C2856.57 1456.61 2857.36 1456.83 2858.07 1457.3 2859.95 1458.56 2860.46 1461.09 2859.2 1462.99 2851.12 1475.12 2837.58 1482.37 2823 1482.37 2808.42 1482.37 2794.88 1475.12 2786.79 1462.99 2785.54 1461.09 2786.05 1458.54 2787.92 1457.3 2788.63 1456.83 2789.42 1456.61 2790.2 1456.61 2791.52 1456.61 2792.82 1457.24 2793.61 1458.43 2800.18 1468.29 2811.16 1474.16 2823 1474.16 2834.83 1474.16 2845.82 1468.29 2852.39 1458.43 2853.16 1457.24 2854.46 1456.61 2855.78 1456.61ZM2782.01 1382.51C2770.7 1382.51 2761.5 1391.98 2761.5 1403.28L2761.5 1485.32C2761.5 1496.62 2770.7 1505.82 2782.01 1505.82L2804.9 1505.82 2820.1 1521.3C2820.9 1522.1 2821.95 1522.5 2823 1522.5 2824.05 1522.5 2825.1 1522.1 2825.9 1521.3L2841.1 1505.82 2863.99 1505.82C2875.3 1505.82 2884.49 1496.62 2884.49 1485.32L2884.49 1403.28C2884.49 1391.98 2875.3 1382.51 2863.99 1382.51Z" stroke="#000000" stroke-width="3.4375" stroke-linejoin="round" stroke-miterlimit="10" fill="#FFFFFF" fill-rule="evenodd"/><rect x="2779.5" y="1396.5" width="87" height="90.9998" stroke="#FFFFFF" stroke-width="9.16667" stroke-linejoin="round" stroke-miterlimit="10" fill="#FFFFFF"/></g></svg>