<svg width="140" height="140" xmlns="http://www.w3.org/2000/svg" xmlns:xlink="http://www.w3.org/1999/xlink" xml:space="preserve" overflow="hidden"><g transform="translate(-2312 -1586)"><path d="M2414.45 1611.01C2412.16 1611.01 2409.89 1611.18 2407.62 1611.5 2397.03 1613.05 2390.5 1617.51 2390.32 1627.45L2390.32 1647.85C2390.32 1650.11 2388.49 1651.94 2386.22 1651.94L2378 1651.94 2378 1660.1 2386.22 1660.1C2388.49 1660.1 2390.32 1661.93 2390.32 1664.19L2390.32 1726 2402.65 1726 2402.65 1664.19C2402.65 1661.93 2404.49 1660.1 2406.75 1660.1L2419.98 1660.1 2422.03 1651.94 2406.75 1651.94C2404.49 1651.94 2402.65 1650.11 2402.65 1647.85L2402.65 1634.79C2402.65 1627.94 2406.99 1623.26 2414.53 1622 2415.92 1621.77 2417.26 1621.68 2418.53 1621.68 2420.73 1621.68 2422.73 1621.95 2424.51 1622.3L2425.99 1612.33C2422.04 1611.45 2418.21 1611.01 2414.45 1611.01Z" fill="#FFFFFF" fill-rule="evenodd"/><path d="M2332.52 1586C2321.22 1586 2312.01 1595.2 2312.01 1606.51L2312.01 1705.48C2312.01 1716.8 2321.22 1726 2332.52 1726L2382.28 1726 2382.28 1668.03 2374.07 1668.03C2371.81 1668.03 2369.98 1666.19 2369.98 1663.93L2369.98 1647.52C2369.98 1645.26 2371.81 1643.42 2374.07 1643.42L2382.28 1643.42 2382.28 1628.86C2382.28 1613.24 2390.87 1605.2 2406.56 1602.9 2409.15 1602.52 2411.8 1602.32 2414.48 1602.32 2420.12 1602.32 2425.94 1603.18 2431.82 1604.85 2433.81 1605.41 2435.06 1607.35 2434.76 1609.4L2432.07 1627.49C2431.9 1628.64 2431.25 1629.65 2430.3 1630.29 2429.53 1630.81 2428.84 1630.99 2428.15 1630.99 2427.41 1630.99 2426.65 1630.78 2425.77 1630.56 2423.63 1630.02 2421.26 1629.43 2418.67 1629.43 2417.8 1629.43 2416.92 1629.49 2416.01 1629.65 2411.38 1630.43 2410.99 1632.51 2410.99 1634.39L2410.99 1643.42 2427.39 1643.42C2428.66 1643.42 2429.84 1644 2430.62 1645 2431.4 1645.99 2431.67 1647.29 2431.37 1648.51L2427.26 1664.92C2426.81 1666.75 2425.17 1668.02 2423.29 1668.02L2410.99 1668.02 2410.99 1726 2431.48 1726C2442.8 1726 2452 1716.78 2452 1705.48L2452 1606.51C2452 1595.2 2442.8 1586 2431.5 1586Z" fill="#FFFFFF" fill-rule="evenodd"/></g></svg>