<svg width="140" height="140" xmlns="http://www.w3.org/2000/svg" xmlns:xlink="http://www.w3.org/1999/xlink" xml:space="preserve" overflow="hidden"><defs><clipPath id="clip0"><rect x="2094" y="1194" width="140" height="140"/></clipPath></defs><g clip-path="url(#clip0)" transform="translate(-2094 -1194)"><path d="M2192.45 1227.18C2197.01 1227.18 2200.73 1230.84 2200.73 1235.36 2200.72 1239.88 2197.01 1243.55 2192.45 1243.55 2187.89 1243.55 2184.18 1239.88 2184.18 1235.36 2184.18 1230.84 2187.89 1227.18 2192.45 1227.18ZM2163.5 1235.36C2179.47 1235.36 2192.45 1248.21 2192.45 1264 2192.45 1279.79 2179.47 1292.64 2163.5 1292.64 2147.54 1292.64 2134.54 1279.79 2134.54 1264 2134.54 1248.21 2147.53 1235.36 2163.5 1235.36ZM2130.4 1219.01C2123.57 1219.01 2118 1224.5 2118 1231.28L2118 1296.72C2118 1303.5 2123.57 1308.99 2130.4 1308.99L2196.59 1308.99C2203.43 1308.99 2209 1303.5 2209 1296.72L2209 1231.28C2209 1224.51 2203.43 1219.01 2196.59 1219.01Z" fill="#869FB2" fill-rule="evenodd"/><path d="M2163.5 1243C2152.21 1243 2143.01 1252.19 2143.01 1263.5 2143.01 1274.8 2152.21 1284 2163.5 1284 2174.79 1284 2183.99 1274.8 2183.99 1263.5 2183.99 1252.19 2174.79 1243 2163.5 1243Z" fill="#869FB2" fill-rule="evenodd"/><path d="M2196.81 1210.68C2208.11 1210.68 2217.33 1219.88 2217.33 1231.19L2217.33 1296.81C2217.33 1308.12 2208.11 1317.32 2196.81 1317.32L2131.18 1317.32C2119.88 1317.32 2110.69 1308.12 2110.69 1296.81L2110.69 1231.19C2110.69 1219.88 2119.88 1210.68 2131.18 1210.68ZM2114.78 1194C2103.47 1194 2094 1203.47 2094 1214.79L2094 1313.21C2094 1324.53 2103.47 1334 2114.78 1334L2213.22 1334C2224.53 1334 2233.99 1324.53 2233.99 1313.21L2233.99 1214.79C2233.99 1203.47 2224.53 1194 2213.22 1194Z" fill="#869FB2" fill-rule="evenodd"/></g></svg>