<svg width="123" height="115" xmlns="http://www.w3.org/2000/svg" xmlns:xlink="http://www.w3.org/1999/xlink" xml:space="preserve" overflow="hidden"><g transform="translate(-1816 -982)"><path d="M1877.48 982C1876.2 982 1874.93 982.657 1874.26 983.972L1857.21 1017.81 1819.13 1023.23C1816.17 1023.65 1815.01 1027.27 1817.16 1029.32L1844.71 1055.64 1838.2 1092.79C1837.79 1095.12 1839.65 1096.99 1841.75 1096.99 1842.3 1096.99 1842.87 1096.87 1843.42 1096.58L1877.51 1079.01 1911.6 1096.58C1912.14 1096.87 1912.71 1096.99 1913.26 1096.99 1915.35 1096.99 1917.2 1095.12 1916.8 1092.81L1910.29 1055.64 1937.84 1029.34C1940 1027.27 1938.83 1023.65 1935.85 1023.23L1897.75 1017.81 1880.7 983.972C1880.04 982.657 1878.76 982 1877.48 982Z" fill="#FFFFFF" fill-rule="evenodd"/></g></svg>