<svg width="126" height="118" xmlns="http://www.w3.org/2000/svg" xmlns:xlink="http://www.w3.org/1999/xlink" xml:space="preserve" overflow="hidden"><g transform="translate(-1815 -981)"><path d="M1877.98 982.5C1876.7 982.5 1875.43 983.157 1874.76 984.472L1857.71 1018.31 1819.63 1023.73C1816.67 1024.15 1815.51 1027.77 1817.66 1029.82L1845.21 1056.14 1838.7 1093.29C1838.29 1095.62 1840.15 1097.49 1842.25 1097.49 1842.8 1097.49 1843.37 1097.37 1843.92 1097.08L1878.01 1079.51 1912.1 1097.08C1912.64 1097.37 1913.21 1097.49 1913.76 1097.49 1915.85 1097.49 1917.7 1095.62 1917.3 1093.31L1910.79 1056.14 1938.34 1029.84C1940.5 1027.77 1939.33 1024.15 1936.35 1023.73L1898.25 1018.31 1881.2 984.472C1880.53 983.157 1879.26 982.5 1877.98 982.5Z" stroke="#000000" stroke-width="3.4375" stroke-linejoin="round" stroke-miterlimit="10" fill="#FFFFFF" fill-rule="evenodd"/></g></svg>