<svg width="135" height="134" xmlns="http://www.w3.org/2000/svg" xmlns:xlink="http://www.w3.org/1999/xlink" xml:space="preserve" overflow="hidden"><defs><clipPath id="clip0"><rect x="1420" y="1290" width="135" height="134"/></clipPath></defs><g clip-path="url(#clip0)" transform="translate(-1420 -1290)"><path d="M1525.82 1373.01C1523.14 1377.59 1519.79 1381.51 1516.09 1385.75 1512.07 1390.34 1507.03 1393.6 1502.01 1396.22L1525.48 1419.09C1528.84 1422.36 1533.11 1424 1537.39 1424 1541.66 1424 1545.94 1422.36 1549.29 1419.09 1556 1412.56 1556 1402.42 1549.29 1395.89L1525.82 1373.01Z" fill="#FFFFFF" fill-rule="evenodd"/><path d="M1472.66 1307.95C1491.66 1307.95 1507.66 1323.89 1507.66 1342.83 1507.32 1352.13 1503.99 1360.76 1497.66 1367.08 1491.33 1373.38 1482.66 1377.71 1472.66 1377.71 1453.34 1377.71 1437.67 1362.09 1437.67 1342.83 1437.67 1323.89 1453.34 1307.95 1472.66 1307.95ZM1472.66 1290.01C1443.99 1290.01 1420 1313.93 1420 1342.49 1420 1371.06 1443.99 1394.98 1472.66 1394.98 1473.03 1394.99 1473.4 1394.99 1473.77 1394.99 1487.36 1394.99 1500.25 1389.06 1509.99 1379.04 1519.66 1369.07 1524.99 1356.11 1524.99 1342.49 1524.99 1313.93 1501.32 1290.01 1472.66 1290.01Z" fill="#FFFFFF" fill-rule="evenodd"/></g></svg>