<svg width="140" height="115" xmlns="http://www.w3.org/2000/svg" xmlns:xlink="http://www.w3.org/1999/xlink" xml:space="preserve" overflow="hidden"><g transform="translate(-2642 -1586)"><path d="M2737.04 1586C2730.52 1586 2721.22 1588.6 2714.59 1595.97 2709.38 1601.79 2706.77 1609.4 2706.84 1618.67 2687.71 1616.31 2672.03 1607.63 2659.01 1592.24 2658.22 1591.33 2657.11 1590.79 2655.93 1590.79 2655.73 1590.79 2655.53 1590.81 2655.32 1590.84 2653.94 1591.04 2652.75 1591.94 2652.18 1593.2 2647.09 1604.52 2647.13 1614.72 2652.27 1623.7 2652.17 1623.69 2652.06 1623.69 2651.96 1623.69 2649.88 1623.69 2647.88 1625.63 2648.03 1628.08 2648.71 1638.36 2652.46 1646.33 2659.21 1651.88 2657.93 1652.9 2657.39 1654.63 2657.84 1656.23 2659.98 1663.68 2666.23 1671.78 2675.79 1675.63 2668.77 1679.31 2660.42 1681.14 2651.85 1681.14 2650.13 1681.14 2648.41 1681.07 2646.69 1680.92 2646.6 1680.91 2646.5 1680.91 2646.41 1680.91 2644.65 1680.91 2643.13 1682.09 2642.57 1683.82 2642 1685.63 2642.83 1687.67 2644.45 1688.66 2650.51 1692.35 2665.74 1701 2688.08 1701 2748.66 1701 2768.25 1647.05 2768.25 1620.92 2768.23 1619.29 2768.24 1619.48 2768.15 1618.64 2768.29 1618.47 2768.85 1618.05 2769.29 1617.71 2771.56 1615.99 2775.52 1613.14 2780.98 1605.1 2781.99 1603.59 2781.92 1601.62 2780.79 1600.19 2779.94 1599.12 2778.97 1598.7 2777.87 1598.7 2777.09 1598.7 2776.25 1598.91 2775.34 1599.27 2776.36 1597.45 2777.2 1595.52 2777.88 1593.48 2778.41 1591.9 2777.83 1590.53 2776.58 1589.43 2775.85 1588.79 2774.89 1588.47 2773.93 1588.47 2773.26 1588.47 2772.59 1588.63 2771.98 1588.93 2765.35 1592.31 2760.4 1593.77 2758.21 1594.21 2752.48 1588.91 2746.34 1586 2737.04 1586Z" fill="#FFFFFF" fill-rule="evenodd"/></g></svg>